<svg width="48" height="66" viewBox="0 0 48 66" fill="none" xmlns="http://www.w3.org/2000/svg">
<g clip-path="url(#clip0_2102_359)">
<path d="M5.87294 58.9448C5.87294 58.1483 5.19529 57.5793 4.40471 57.5793H2.14588V60.3103H4.40471C5.30824 60.3103 5.87294 59.7414 5.87294 58.9448ZM0 55.6448H4.74353C6.88941 55.6448 8.13176 57.1241 8.13176 58.9448C8.13176 60.6517 6.88941 62.2448 4.74353 62.2448H2.14588V65.8862H0V55.6448Z" fill="white"/>
<path d="M14.5694 62.131C14.5694 60.9931 13.8918 59.969 12.6494 59.969C11.4071 59.969 10.8424 60.9931 10.8424 62.131C10.8424 63.269 11.52 64.2931 12.6494 64.2931C13.7788 64.2931 14.5694 63.269 14.5694 62.131ZM8.92237 62.131C8.92237 60.0828 10.3906 58.2621 12.7624 58.2621C15.1341 58.2621 16.6024 59.969 16.6024 62.131C16.6024 64.1793 15.1341 66 12.7624 66C10.3906 66 8.92237 64.1793 8.92237 62.131Z" fill="white"/>
<path d="M17.8447 62.131C17.8447 59.8552 19.4259 58.2621 21.6847 58.2621C23.1529 58.2621 24.0565 58.9448 24.6212 59.6276L23.3788 60.7655C23.04 60.1966 22.4753 59.969 21.7976 59.969C20.6682 59.969 19.7647 60.7655 19.7647 62.131C19.7647 63.4966 20.5553 64.2931 21.7976 64.2931C22.4753 64.2931 23.04 63.9517 23.3788 63.4966L24.6212 64.6345C24.1694 65.3172 23.2659 66 21.6847 66C19.4259 66 17.8447 64.4069 17.8447 62.131Z" fill="white"/>
<path d="M27.7835 65.7724V60.0828H25.7506V58.4897H31.7365V60.0828H29.7035V65.7724H27.7835Z" fill="white"/>
<path d="M36.2541 59.8552C35.0118 59.8552 34.56 60.7655 34.4471 61.4483H38.0612C38.0612 60.7655 37.4965 59.8552 36.2541 59.8552ZM32.5271 62.131C32.5271 59.969 34.1082 58.2621 36.2541 58.2621C38.4 58.2621 39.8682 59.8552 39.8682 62.3586V62.8138H34.4471C34.56 63.7241 35.3506 64.5207 36.5929 64.5207C37.1576 64.5207 38.0612 64.2931 38.5129 63.8379L39.3035 65.0897C38.6259 65.7724 37.3835 66.1138 36.2541 66.1138C34.2212 66 32.5271 64.5207 32.5271 62.131Z" fill="white"/>
<path d="M45.8541 65.7724L44.16 63.269L42.4659 65.7724H40.32L42.9176 62.0172L40.5459 58.4897H42.6918L44.16 60.7655L45.6282 58.4897H47.7741L45.4024 62.0172L48 65.7724H45.8541Z" fill="white"/>
<path d="M41.5623 22.531V6.25862H25.5247L31.7365 0H47.7741V16.1586L41.5623 22.531Z" fill="white"/>
<path d="M47.7741 48.1345H31.7365L25.5247 41.8759H41.5623V25.7172L47.7741 31.9759V48.1345Z" fill="white"/>
<path d="M0 16.1586V0H16.0376L22.3624 6.25862H6.32471V22.531L0 16.1586Z" fill="white"/>
<path d="M0 31.9759L6.32471 25.7172V41.8759H22.2494L16.0376 48.1345H0V31.9759Z" fill="white"/>
</g>
<defs>
<clipPath id="clip0_2102_359">
<rect width="48" height="66" fill="white"/>
</clipPath>
</defs>
</svg>
